<svg width="200" height="200" viewBox="0 0 200 200" fill="none" xmlns="http://www.w3.org/2000/svg">
  <!-- Heart shape -->
  <path d="M100 180C100 180 20 120 20 70C20 45 40 25 65 25C80 25 90 35 100 45C110 35 120 25 135 25C160 25 180 45 180 70C180 120 100 180 100 180Z" 
        fill="white" 
        stroke="currentColor" 
        stroke-width="8" 
        stroke-linejoin="round"/>
  
  <!-- UwU text -->
  <g fill="currentColor">
    <!-- First U -->
    <path d="M45 80 L45 100 Q45 110 55 110 Q65 110 65 100 L65 80" 
          stroke="currentColor" 
          stroke-width="6" 
          stroke-linecap="round" 
          fill="none"/>
    
    <!-- w -->
    <path d="M80 85 L85 105 L90 95 L95 105 L100 85" 
          stroke="currentColor" 
          stroke-width="5" 
          stroke-linecap="round" 
          fill="none"/>
    
    <!-- Second U -->
    <path d="M115 80 L115 100 Q115 110 125 110 Q135 110 135 100 L135 80" 
          stroke="currentColor" 
          stroke-width="6" 
          stroke-linecap="round" 
          fill="none"/>
  </g>
</svg>